<?xml version="1.0" encoding="utf-8"?>
<!-- Generator: Adobe Illustrator 19.0.0, SVG Export Plug-In . SVG Version: 6.00 Build 0)  -->
<svg version="1.1" id="Guides" xmlns="http://www.w3.org/2000/svg" xmlns:xlink="http://www.w3.org/1999/xlink" x="0px" y="0px"
	 viewBox="0 0 395.6 219.1" style="enable-background:new 0 0 395.6 219.1;" xml:space="preserve">
<style type="text/css">
	.st0{fill:none;stroke:#000000;stroke-miterlimit:10;}
	.st1{fill:none;stroke:#000000;stroke-width:0.75;stroke-miterlimit:10;}
	.st2{fill:none;stroke:#000000;stroke-width:3;stroke-miterlimit:10;}
	.st3{fill:#FFFFFF;stroke:#000000;}
	.st4{fill:none;stroke:#111C20;stroke-miterlimit:10;}
	.st5{fill:none;stroke:#111C20;stroke-width:0.75;stroke-miterlimit:10;}
	.st6{fill:#FFFFFF;stroke:#111C20;}
	.st7{fill:#0029B1;}
	.st8{fill:#111C20;}
	.st9{fill:#42E3BC;}
	.st10{fill:none;}
	.st11{fill:#F4F4F1;}
	.st12{fill:#FFC95C;}
	.st13{opacity:0.63;}
	.st14{fill:#86A6A6;}
</style>
<path class="st0" d="M-770.5,568.5c-3.5,1.5-20.5,11.5-22,11s-4,0.5-2.5-4c0,0,15-9,18.5-18.5C-776.5,557-767,567-770.5,568.5z"/>
<path class="st0" d="M-551.3,622.8"/>
<path class="st0" d="M-565,659.5"/>
<path class="st0" d="M-611.5,673.2"/>
<path class="st0" d="M-776.2,557.1c1.5-10.7,14-17.4,24.5-15c10.5,2.4,18.3,11.9,21.4,22.2c3.1,10.3,2.3,21.4,0.6,32.1
	c-1.6,10.7-4,21.3-3.9,32.1c0.1,10.8,3.5,21.5,10.6,29.7c6.7,7.8,20,5.7,29.8,2.3c9.7-3.4,18.1-9.8,26.4-15.9
	c8.3-6.1,17-12.2,27-14.8c11.7-3.1,23.9-1.2,36-0.4c12,0.7,25,0,34.6-7.3c10-7.6,14.2-21.1,13.7-33.7c3,17-0.1,34.9-8.5,50"/>
<path class="st0" d="M-769.7,568.1c7.8,6.9,16.8-1.1,25.2-1.3"/>
<path class="st0" d="M-742,568.9c7.1,15.2-1.2,31.6-4.5,46.6c-3.2,14.6-2.5,30,1.8,44.4c2.5,8.2,4.4,17.6,10.9,23.1"/>
<path class="st0" d="M-745.2,566.8c0,0,2.2-0.6,3.3,2.3"/>
<path class="st0" d="M-713,656.3"/>
<path class="st0" d="M-943.3,335"/>
<path class="st0" d="M-868.6,684h-97c-6.6,0-9.5-5.4-6.6-12l14.3-31.5c3-6.6,10.8-12,17.4-12h97c6.6,0,9.5,5.4,6.6,12l-14.3,31.5
	C-854.1,678.6-862,684-868.6,684z"/>
<path class="st0" d="M-877.4,628.7c-0.8-0.2-1.6-0.2-2.4-0.2h-97c-6.6,0-10.5,5.4-8.6,12l8.8,31.5l2.7,9.7c0,0,1.2,2.4,4.2,2.3"/>
<g>
	<path class="st0" d="M-833.8,151.6"/>
	<path class="st0" d="M-880.3,165.3"/>
	<path class="st0" d="M-1038.6,60.2c7.8,6.9,16.8-1.1,25.2-1.3"/>
	<path class="st0" d="M-1014,58.9c0,0,2.2-0.6,3.3,2.3"/>
	<path class="st0" d="M-981.8,148.4"/>
	<path class="st0" d="M-1054.3,163.6"/>
	<path class="st0" d="M-975.3,148.4"/>
	<path class="st1" d="M-987.5,143.2c1-0.3,2-0.5,3-0.8"/>
	<path class="st1" d="M-983.8,150.2c1.2-0.7,2.4-1.3,3.6-2"/>
	<g>
		<path class="st0" d="M-1039.3,60.6c-3.5,1.5-20.5,11.5-22,11s-4,0.5-2.5-4c0,0,15-9,18.5-18.5
			C-1045.3,49.1-1035.8,59.1-1039.3,60.6z"/>
		<path class="st0" d="M-820.1,114.9"/>
		<path class="st0" d="M-1045.1,49.2c1.5-10.7,14-17.4,24.5-15c10.5,2.4,18.3,11.9,21.4,22.2c3.1,10.3,2.3,21.4,0.6,32.1
			s-4,21.3-3.9,32.1c0.1,10.8,3.5,21.5,10.6,29.7c6.7,7.8,20,5.7,29.8,2.3s18.1-9.8,26.4-15.9c8.3-6.1,17-12.2,27-14.8
			c11.7-3.1,23.9-1.2,36-0.4s25,0,34.6-7.3c10-7.6,14.2-21.1,13.7-33.7c3,17-0.1,34.9-8.5,50"/>
		<path class="st0" d="M-1010.9,61c7.1,15.2-1.2,31.6-4.5,46.6c-3.2,14.6-2.5,30,1.8,44.4c2.5,8.2,4.4,17.6,10.9,23.1"/>
		<path class="st0" d="M-922.3,122.2l-61.9,31.5c-0.2,0.1-0.1,0.2,0.2,0.3l0,0c0.3,0.1,0.7,0.1,0.9,0l61.9-31.5
			c0.2-0.1,0.1-0.2-0.2-0.3l0,0C-921.7,122.1-922.1,122.1-922.3,122.2z"/>
		<path class="st0" d="M-921.1,122.2c0,0-0.7,2.9,0.4,3.7c0,0,7.1-4.2,10.4-4.5c0,0,0.5-1.4-1.5-2.9"/>
		<path class="st0" d="M-842.5,113.8l-69.3,4.8c-0.2,0-0.2,0.2,0.1,0.4l0,0c0.2,0.2,0.6,0.4,0.8,0.3l69.3-4.8c0.2,0,0.2-0.2-0.1-0.4
			l0,0C-841.9,114-842.3,113.8-842.5,113.8z"/>
		<path class="st0" d="M-921.1,122.2c0.6-1.7,2-3.1,3.7-3.8c1.7-0.7,3.7-0.6,5.3,0.3"/>
		<path class="st1" d="M-917.2,118.5c-0.4-0.6-0.7-1.2-0.9-1.8c-0.9-2.7,0-5.9,1.9-8c2.4-2.7,6-3.9,9.6-4.1
			c3.6-0.2,7.1,0.4,10.6,0.9c16.7,2.3,33.8,1.1,50-3.5c0.9,4.1,1.9,8.1,2.8,12.2"/>
		<path class="st1" d="M-982.6,152.4c-2.1-3.8-4.1-7.6-6.2-11.5c16.8-2.9,32.8-10.5,45.8-21.6c2.6-2.2,5.1-4.6,8.1-6.3
			c3-1.7,6.5-2.7,9.8-1.9c3.2,0.8,5.1,4,7,6.7l0.2,0.5"/>
		<path class="st2" d="M-813.8,175.1h-259c-6.6,0-12-5.4-12-12v-130c0-6.6,5.4-12,12-12h259c6.6,0,12,5.4,12,12v130
			C-801.8,169.7-807.2,175.1-813.8,175.1z"/>
		<path class="st1" d="M-844,110.9"/>
		<path class="st3" d="M-845.4,104.7"/>
		<path class="st3" d="M-845.4,105.1c-10.1,2.2-10.1,2.2-10.1,2.2L-845.4,105.1z"/>
		<path class="st0" d="M-834.9,133.4c2.6-3.4,5.2-6.9,7.8-10.3c2.6,12.2,5.1,25,1.6,36.9c-1.5,5.2-4.2,10-7.7,14.1"/>
	</g>
	<g>
		<g>
			<path d="M-1034.2,49c1.9,0,1.9-3,0-3C-1036.2,46-1036.2,49-1034.2,49L-1034.2,49z"/>
		</g>
	</g>
</g>
<g id="logo">
	<g>
		<path class="st4" d="M-544.4,412.3"/>
		<path class="st4" d="M-590.9,426"/>
		<path class="st4" d="M-692.4,409.1"/>
		<path class="st4" d="M-764.9,424.3"/>
		<path class="st4" d="M-685.9,409.1"/>
		<path class="st4" d="M-530.7,375.7"/>
		<path class="st4" d="M-631.4,382.7c0,0.1,0,0.1-0.1,0.2"/>
		<path class="st5" d="M-554.6,371.7"/>
		<path class="st6" d="M-556,365.4"/>
		<path class="st4" d="M-749,321.1c-0.1,0-21.4,11.8-22.9,11.3s-4,0.5-2.5-4c0,0,14.6-8.8,18.4-18.2l0.4-0.5
			C-755.6,309.6-748.3,306.7-749,321.1z"/>
		<g>
			<path class="st7" d="M-744.8,308.3"/>
			<g>
				<path class="st8" d="M-744.8,309.8c1.9,0,1.9-3,0-3C-746.7,306.8-746.7,309.8-744.8,309.8L-744.8,309.8z"/>
			</g>
		</g>
		<path class="st9" d="M-533.4,291h-237.1c-6.6,0-13.5,4.6-13.5,11.2v121.6c0,6.6,6.9,13.2,13.5,13.2h57.3
			c-6.5-6-8.4-15.5-10.9-23.7c-4.3-14.3-5-30-1.8-44.7c3.3-14.9,11.5-31.4,4.6-46.5c0-0.1-2.9-2.4-3-2.4c-8.3,0.5-17,7.9-24.6,1.4
			c-0.1,0-21.4,11.8-22.9,11.3s-4,0.5-2.5-4c0,0,14.6-8.8,18.4-18.2l0.4-0.5c1.7-10.5,14.1-17.1,24.5-14.7
			c10.5,2.4,18.3,11.9,21.4,22.2c3.1,10.3,2.3,21.4,0.6,32.1c-1.6,10.7-4,21.3-3.9,32c0.1,10.8,3.5,21.5,10.5,29.7
			c6.7,7.8,20,5.7,29.8,2.3c9.7-3.4,18.1-9.8,26.4-15.9c8.3-6.1,17-12.2,27-14.8c11.7-3.1,24-1.2,36-0.4c12,0.7,25,0,34.6-7.3
			c10.1-7.6,14.2-21.1,13.7-33.7c3,17-0.1,34.9-8.5,50l-2,3c2.6-3.4,5.2-6.9,7.8-10.3c2.6,12.2,5.1,25,1.6,36.9
			c-1.5,5.2-4.2,10.6-7.7,14.7l-169.5,1.5h179.8c6.6,0,11.5-6.6,11.5-13.2V302.2C-522,295.6-526.8,291-533.4,291z M-622.4,379.2
			c2.1,1.5,1.5,2.9,1.5,2.9c-3.3,0.3-10.4,4.5-10.4,4.5c-1.1-0.8-0.4-3.7-0.4-3.7l0.2-0.2c0,0,0-0.1,0-0.1l-61.8,30.5
			c-0.4-0.8-0.8-1.5-1.2-2.3c-1.7-3.1-3.3-6.1-5-9.2c16.8-3,32.8-10.5,45.8-21.6c2.6-2.2,5.1-4.6,8.1-6.3c3-1.7,6.5-2.7,9.8-1.9
			c3.2,0.8,5.1,4.4,7,7.1l0.2,0.9h0.5c0,0,0-0.4,0.1-0.4c-0.4-0.6-0.7-1.4-0.9-2c-0.8-2.7,0-6,1.9-8.1c2.4-2.7,6-3.9,9.6-4.2
			c3.5-0.2,7.1,0.4,10.6,0.9c16.7,2.3,33.8,1.1,50-3.5c0.9,4,1.8,8.1,2.8,12.2L-622.4,379.2z"/>
		<path class="st10" d="M-627.9,380c-1.6,1-2.8,1.5-3.5,3.1l-61.8,30.3c-0.4-0.8-0.8-1.6-1.2-2.4c-1.7-3.1-3.3-6.2-5-9.3
			c16.8-3,32.8-10.5,45.8-21.6c2.6-2.2,5.1-4.6,8.1-6.3c3-1.7,6.5-2.7,9.8-1.9c3.2,0.8,5.1,4.4,7,7.1l0.2,0.9H-627.9z"/>
		<path class="st11" d="M-537.7,383.9c2.6,12.2,5.1,25,1.6,36.9c-1.5,5.2-4.2,10-7.7,14.1l-169.5,0.9c-6.5-5.6-8.4-14.9-10.9-23.1
			c-4.3-14.3-5-29.7-1.8-44.4c3.3-14.9,11.5-31.3,4.6-46.4c0-0.1-2.9-2.3-3-2.3c-8.3,0.5-17,7.9-24.6,1.4
			c0.7-14.3-6.6-11.4-6.6-11.4c1.7-10.5,14.1-17.1,24.5-14.7c10.5,2.4,18.3,11.9,21.4,22.2c3.1,10.3,2.3,21.4,0.6,32.1
			c-1.6,10.7-4,21.3-3.9,32.1c0.1,10.8,3.5,21.5,10.5,29.7c6.7,7.8,20,5.7,29.8,2.3c9.7-3.4,18.1-9.8,26.4-15.9
			c8.3-6.1,17-12.2,27-14.8c11.7-3.1,24-1.2,36-0.4c12,0.7,25,0,34.6-7.3c10.1-7.6,14.2-21.1,13.7-33.7c3,17-0.1,34.9-8.5,50l-2,3
			C-542.8,390.7-540.2,387.3-537.7,383.9z"/>
		<path class="st12" d="M-749,321.1c-0.1,0-21.4,11.8-22.9,11.3s-4,0.5-2.5-4c0,0,14.6-8.8,18.4-18.2l0.4-0.5
			C-755.6,309.6-748.3,306.7-749,321.1z"/>
		<g class="st13">
			<path class="st14" d="M-741.4,305.6"/>
			<g>
				<path class="st8" d="M-741.4,309c4.4,0,4.4-6.8,0-6.8C-745.8,302.2-745.8,309-741.4,309L-741.4,309z"/>
			</g>
		</g>
	</g>
	<path class="st4" d="M314.6,150.3"/>
	<path class="st4" d="M268.1,164"/>
	<path class="st4" d="M166.6,147.1"/>
	<path class="st4" d="M94.1,162.3"/>
	<path class="st4" d="M173.1,147.1"/>
	<path class="st4" d="M328.3,113.7"/>
	<path class="st4" d="M227.6,120.7c0,0.1-0.1,0.1-0.1,0.2"/>
	<path class="st5" d="M304.4,109.7"/>
	<path class="st6" d="M303,103.4"/>
	<g>
		<path class="st7" d="M114.2,46.3"/>
		<g>
			<path class="st8" d="M114.2,47.8c1.9,0,1.9-3,0-3C112.3,44.8,112.3,47.8,114.2,47.8L114.2,47.8z"/>
		</g>
	</g>
	<path class="st9" d="M325.6,29H88.5C81.9,29,75,33.6,75,40.2v121.6c0,6.6,6.9,13.2,13.5,13.2h57.3c-6.5-6-8.4-15.5-10.9-23.7
		c-4.3-14.3-5-30-1.8-44.7c3.3-14.9,11.5-31.4,4.6-46.5c0-0.1-2.9-2.4-3-2.4c-8.3,0.5-17,7.9-24.6,1.4c-0.1,0-21.4,11.8-22.9,11.3
		s-4,0.5-2.5-4c0,0,14.6-8.8,18.4-18.2l0.4-0.5c1.7-10.5,14.1-17.1,24.5-14.7c10.5,2.4,18.3,11.9,21.4,22.2
		c3.1,10.3,2.3,21.4,0.6,32.1c-1.6,10.7-4,21.3-3.9,32c0.1,10.8,3.5,21.5,10.5,29.7c6.7,7.8,20,5.7,29.8,2.3
		c9.7-3.4,18.1-9.8,26.4-15.9c8.3-6.1,17-12.2,27-14.8c11.7-3.1,24-1.2,36-0.4c12,0.7,25,0,34.6-7.3c10.1-7.6,14.2-21.1,13.7-33.7
		c3,17-0.1,34.9-8.5,50l-2,3c2.6-3.4,5.2-6.9,7.8-10.3c2.6,12.2,5.1,25,1.6,36.9c-1.5,5.2-4.2,10.6-7.7,14.7L145.8,175h179.8
		c6.6,0,11.5-6.6,11.5-13.2V40.2C337,33.6,332.2,29,325.6,29z M236.6,117.2c2.1,1.5,1.5,2.9,1.5,2.9c-3.3,0.3-10.4,4.5-10.4,4.5
		c-1.1-0.8-0.4-3.7-0.4-3.7l0.2-0.2c0,0,0-0.1,0-0.1l-61.8,30.5c-0.4-0.8-0.8-1.5-1.2-2.3c-1.7-3.1-3.3-6.1-5-9.2
		c16.8-3,32.8-10.5,45.8-21.6c2.6-2.2,5.1-4.6,8.1-6.3c3-1.7,6.5-2.7,9.8-1.9c3.2,0.8,5.1,4.4,7,7.1l0.2,0.9h0.5c0,0,0-0.4,0.1-0.4
		c-0.4-0.6-0.7-1.4-0.9-2c-0.8-2.7,0-6,1.9-8.1c2.4-2.7,6-3.9,9.6-4.2c3.5-0.2,7.1,0.4,10.6,0.9c16.7,2.3,33.8,1.1,50-3.5
		c0.9,4,1.8,8.1,2.8,12.2L236.6,117.2z"/>
	<path class="st10" d="M231.1,118c-1.6,1-2.8,1.5-3.5,3.1l-61.8,30.3c-0.4-0.8-0.8-1.6-1.2-2.4c-1.7-3.1-3.3-6.2-5-9.3
		c16.8-3,32.8-10.5,45.8-21.6c2.6-2.2,5.1-4.6,8.1-6.3c3-1.7,6.5-2.7,9.8-1.9c3.2,0.8,5.1,4.4,7,7.1l0.2,0.9H231.1z"/>
	<path class="st11" d="M321.3,121.9c2.6,12.2,5.1,25,1.6,36.9c-1.5,5.2-4.2,10-7.7,14.1l-169.5,0.9c-6.5-5.6-8.4-14.9-10.9-23.1
		c-4.3-14.3-5-29.7-1.8-44.4c3.3-14.9,11.5-31.3,4.6-46.4c0-0.1-2.9-2.3-3-2.3c-8.3,0.5-17,7.9-24.6,1.4c0.7-14.3-6.6-11.4-6.6-11.4
		c1.7-10.5,14.1-17.1,24.5-14.7c10.5,2.4,18.3,11.9,21.4,22.2c3.1,10.3,2.3,21.4,0.6,32.1c-1.6,10.7-4,21.3-3.9,32.1
		c0.1,10.8,3.5,21.5,10.5,29.7c6.7,7.8,20,5.7,29.8,2.3c9.7-3.4,18.1-9.8,26.4-15.9c8.3-6.1,17-12.2,27-14.8c11.7-3.1,24-1.2,36-0.4
		c12,0.7,25,0,34.6-7.3c10.1-7.6,14.2-21.1,13.7-33.7c3,17-0.1,34.9-8.5,50l-2,3C316.2,128.7,318.8,125.3,321.3,121.9z"/>
	<path class="st12" d="M110,59.1c-0.1,0-21.4,11.8-22.9,11.3s-4,0.5-2.5-4c0,0,14.6-8.8,18.4-18.2l0.4-0.5
		C103.4,47.6,110.7,44.7,110,59.1z"/>
	<g class="st13">
		<path class="st14" d="M117.6,43.6"/>
		<g>
			<path class="st8" d="M117.6,47c4.4,0,4.4-6.8,0-6.8C113.2,40.2,113.2,47,117.6,47L117.6,47z"/>
		</g>
	</g>
</g>
</svg>
